HIERARCHY
ROOT root
{
	OFFSET 0.000000 0.000000 0.000000
	CHANNELS 6 Xposition Yposition Zposition Zrotation Yrotation Xrotation
	JOINT lhip
	{
		OFFSET 0.058581 -0.082280 -0.017664
		CHANNELS 3 Zrotation Yrotation Xrotation
		JOINT lknee
		{
			OFFSET 0.043451 -0.386469 0.008037
			CHANNELS 3 Zrotation Yrotation Xrotation
			JOINT lankle
			{
				OFFSET -0.014790 -0.426874 -0.037428
				CHANNELS 3 Zrotation Yrotation Xrotation
				JOINT ltoe
				{
					OFFSET 0.041054 -0.060286 0.122042
					CHANNELS 3 Zrotation Yrotation Xrotation
					End Site
					{
						OFFSET 0.000000 0.000000 0.000000
					}
				}
			}
		}
	}
	JOINT rhip
	{
		OFFSET -0.060310 -0.090513 -0.013543
		CHANNELS 3 Zrotation Yrotation Xrotation
		JOINT rknee
		{
			OFFSET -0.043257 -0.383688 -0.004843
			CHANNELS 3 Zrotation Yrotation Xrotation
			JOINT rankle
			{
				OFFSET 0.019056 -0.420046 -0.034562
				CHANNELS 3 Zrotation Yrotation Xrotation
				JOINT rtoe
				{
					OFFSET -0.034840 -0.062106 0.130323
					CHANNELS 3 Zrotation Yrotation Xrotation
					End Site
					{
						OFFSET 0.000000 0.000000 0.000000
					}
				}
			}
		}
	}
	JOINT lowerback
	{
		OFFSET 0.004439 0.124404 -0.038385
		CHANNELS 3 Zrotation Yrotation Xrotation
		JOINT upperback
		{
			OFFSET 0.004488 0.137956 0.026820
			CHANNELS 3 Zrotation Yrotation Xrotation
			JOINT chest
			{
				OFFSET -0.002265 0.056032 0.002855
				CHANNELS 3 Zrotation Yrotation Xrotation
				JOINT lowerneck
				{
					OFFSET -0.013390 0.211636 -0.033468
					CHANNELS 3 Zrotation Yrotation Xrotation
					JOINT upperneck
					{
						OFFSET 0.010113 0.088937 0.050410
						CHANNELS 3 Zrotation Yrotation Xrotation
						End Site
						{
							OFFSET 0.000000 0.000000 0.000000
						}
					}
				}
				JOINT lclavicle
				{
					OFFSET 0.071702 0.114000 -0.018898
					CHANNELS 3 Zrotation Yrotation Xrotation
					JOINT lshoulder
					{
						OFFSET 0.122921 0.045205 -0.019046
						CHANNELS 3 Zrotation Yrotation Xrotation
						JOINT lelbow
						{
							OFFSET 0.255332 -0.015649 -0.022946
							CHANNELS 3 Zrotation Yrotation Xrotation
							JOINT lwrist
							{
								OFFSET 0.265709 0.012698 -0.007375
								CHANNELS 3 Zrotation Yrotation Xrotation
								End Site
								{
									OFFSET 0.000000 0.000000 0.000000
								}
							}
						}
					}
				}
				JOINT rclavicle
				{
					OFFSET -0.082954 0.112472 -0.023707
					CHANNELS 3 Zrotation Yrotation Xrotation
					JOINT rshoulder
					{
						OFFSET -0.113228 0.046853 -0.008472
						CHANNELS 3 Zrotation Yrotation Xrotation
						JOINT relbow
						{
							OFFSET -0.260127 -0.014369 -0.031269
							CHANNELS 3 Zrotation Yrotation Xrotation
							JOINT rwrist
							{
								OFFSET -0.269108 0.006794 -0.006027
								CHANNELS 3 Zrotation Yrotation Xrotation
								End Site
								{
									OFFSET 0.000000 0.000000 0.000000
								}
							}
						}
					}
				}
			}
		}
	}
}
MOTION
Frames: 9
Frame Time: 0.033333
0.357453 0.147380 1.009268 88.711147 -0.079313 89.186637 4.974260 4.470242 6.476811 -3.528741 -1.945737 -6.479898 0.728797 8.626678 -3.250709 0.000000 -0.000000 0.000000 -5.704957 -4.587455 3.067821 1.995661 -1.556850 0.335266 4.431035 -5.471112 -6.721525 0.000000 -0.000000 0.000000 -5.688868 3.703808 -8.611509 1.874229 -1.961368 16.192591 -0.131055 2.006685 -5.135889 3.718630 3.278831 1.197397 4.612944 -3.770927 -7.169284 -27.255598 -0.993178 -2.283221 -54.223388 -6.415474 16.090379 1.879081 -18.895380 7.697188 -7.975384 -14.779198 9.969193 29.635139 3.608416 6.842636 54.978805 5.605258 11.966146 -10.506722 24.150304 -7.166594 1.878489 10.689110 -2.867627 
0.357402 0.147373 1.009285 88.723893 -0.080734 89.167834 4.974250 4.459019 6.490599 -3.527738 -1.957004 -6.478009 0.706327 8.624420 -3.249870 0.000000 -0.000000 0.000000 -5.701570 -4.578304 3.089233 1.993236 -1.544446 0.327289 4.423451 -5.499660 -6.719915 0.000000 -0.000000 0.000000 -5.673681 3.687367 -8.551761 1.839719 -1.931424 16.082869 -0.123527 2.015115 -5.083577 3.703856 3.240002 1.097717 4.603413 -3.785936 -7.015086 -27.200969 -1.017621 -2.261363 -54.250155 -6.418421 16.026973 1.846339 -18.888691 7.765426 -7.976391 -14.768117 9.954030 29.582564 3.611331 6.880488 55.038465 5.659814 11.972647 -10.500898 24.128914 -7.125954 1.887396 10.691393 -2.883510 
0.357070 0.147122 1.009260 88.802782 -0.086603 89.243694 4.978866 4.395994 6.339215 -3.515013 -2.043488 -6.411560 0.523630 8.745202 -3.267169 0.000000 -0.000000 0.000000 -5.613965 -4.431395 3.050266 1.936581 -1.468340 0.197204 4.423903 -5.841972 -6.686203 0.000000 -0.000000 0.000000 -5.585650 3.777938 -8.204274 1.651338 -1.802510 15.445293 -0.025862 1.849240 -5.037717 3.608617 3.141354 0.935278 4.633111 -3.798905 -6.554053 -26.403792 -0.922169 -2.564154 -55.045190 -7.005494 15.847553 1.233624 -17.149697 8.309858 -8.211860 -15.425612 10.057548 29.237306 3.463467 6.826573 55.192331 6.047214 12.248360 -9.686305 23.081946 -6.590950 2.147859 11.264025 -3.213638 
0.356402 0.147272 1.009089 88.958375 -0.133583 89.295004 4.940651 4.365414 6.159823 -3.526745 -2.017465 -6.315663 0.489547 8.628652 -3.227370 0.000000 -0.000000 0.000000 -5.635504 -4.415074 2.975297 1.944286 -1.512014 0.163410 4.455630 -5.889473 -6.619373 0.000000 -0.000000 0.000000 -5.680911 3.763688 -8.208673 1.639501 -1.853127 15.259090 -0.031549 1.827613 -4.958825 3.595092 3.285628 0.656742 4.618408 -4.026509 -6.230199 -26.255035 -1.271046 -2.799533 -54.860795 -7.996153 15.704164 -0.106124 -14.684838 8.416384 -7.694929 -16.164052 10.164490 29.124185 3.427324 6.677940 55.425859 6.184295 12.424726 -9.599729 23.293657 -6.631253 1.260825 11.198884 -3.030369 
0.356239 0.147242 1.009090 88.991363 -0.123605 89.288795 4.951449 4.346167 6.150941 -3.526263 -2.011367 -6.307576 0.486533 8.628853 -3.241719 0.000000 -0.000000 0.000000 -5.616375 -4.414985 2.994427 1.944977 -1.503531 0.128780 4.444124 -5.924548 -6.603577 0.000000 -0.000000 0.000000 -5.680972 3.763386 -8.177117 1.627746 -1.844945 15.177332 -0.021478 1.825562 -4.906086 3.570212 3.306101 0.543316 4.627599 -4.032041 -6.137379 -26.289763 -1.307632 -2.758107 -54.829591 -8.022773 15.641790 -0.076317 -14.658864 8.415262 -7.659182 -16.156659 10.165632 29.133329 3.437679 6.679380 55.419140 6.236411 12.423703 -9.589058 23.312072 -6.524618 1.250716 11.189376 -3.013908 
0.355985 0.147197 1.009114 89.036081 -0.110317 89.284353 4.965525 4.325907 6.148008 -3.528240 -2.026089 -6.314427 0.489515 8.621836 -3.256244 0.000000 -0.000000 0.000000 -5.591069 -4.410435 2.988125 1.942292 -1.518429 0.143314 4.426034 -5.935200 -6.615195 0.000000 -0.000000 0.000000 -5.691005 3.780150 -8.177459 1.605081 -1.824548 15.091812 -0.003195 1.812488 -4.803028 3.579908 3.333686 0.419677 4.638725 -4.026490 -6.130341 -26.305135 -1.378141 -2.730932 -54.828852 -8.027629 15.575228 -0.010494 -14.644637 8.380400 -7.669505 -16.132050 10.158831 29.114381 3.503265 6.677629 55.466249 6.338603 12.433594 -9.589912 23.335116 -6.450950 1.241650 11.231482 -3.011657 
0.355765 0.147158 1.009163 89.075923 -0.109219 89.280192 4.968086 4.316592 6.154063 -3.535970 -2.048619 -6.320588 0.501450 8.609062 -3.225933 0.000000 -0.000000 0.000000 -5.578280 -4.405458 2.999578 1.935795 -1.540657 0.148131 4.406011 -5.916001 -6.637935 0.000000 -0.000000 0.000000 -5.731032 3.803686 -8.151978 1.586757 -1.812576 15.036917 0.018277 1.814958 -4.801976 3.565508 3.277060 0.396881 4.670631 -3.986913 -6.158833 -26.270209 -1.371758 -2.745960 -54.852304 -8.000036 15.591688 -0.005499 -14.622727 8.413667 -7.724642 -16.231555 10.154358 29.149822 3.544730 6.700732 55.442563 6.464350 12.366582 -9.537004 23.061039 -6.469861 1.481001 11.546171 -3.108090 
0.355633 0.147208 1.009149 89.120274 -0.104199 89.245844 4.993667 4.305740 6.184311 -3.562724 -2.066319 -6.318429 0.540260 8.585090 -3.215373 0.000000 -0.000000 0.000000 -5.578804 -4.417358 3.047559 1.950216 -1.533474 0.135956 4.418492 -5.935401 -6.630136 0.000000 -0.000000 0.000000 -5.707189 3.829494 -8.037653 1.537603 -1.771024 14.795557 0.006272 1.796160 -4.695902 3.627580 3.243531 0.399504 4.645233 -3.988401 -6.080995 -26.303168 -1.373666 -2.693454 -54.816048 -7.993764 15.556189 0.061691 -14.653708 8.567121 -7.615373 -16.044248 10.082011 29.071764 3.484456 6.711812 55.597369 6.508061 12.461788 -9.616989 23.453920 -6.369378 1.137398 11.196261 -3.259522 
0.356749 0.147380 1.009491 88.793505 -0.267358 89.112137 4.765852 4.534983 6.672598 -3.474272 -2.072309 -6.699260 0.453958 8.664863 -3.225706 0.000000 -0.000000 0.000000 -5.830549 -4.335484 3.224129 1.989163 -1.413132 0.134907 4.562600 -5.786756 -6.672563 0.000000 -0.000000 0.000000 -5.739380 3.836298 -8.527955 1.489706 -1.456090 15.386468 -0.114345 1.864624 -4.735504 3.649319 3.389551 0.616061 4.673844 -4.155896 -6.218590 -26.364682 -1.499209 -2.585525 -54.745775 -8.077058 15.334121 0.148040 -14.463245 8.353995 -7.710304 -16.116771 10.239514 29.238475 3.742589 7.044075 55.550099 6.585502 12.312241 -9.812402 23.564312 -6.755946 0.945371 11.206929 -3.199020 
